<?xml version="1.0" encoding="UTF-8"?>
<svg id="Layer_2" data-name="Layer 2" xmlns="http://www.w3.org/2000/svg" viewBox="0 0 325.15 422.17">
  <defs>
    <style>
      .cls-1 {
        fill: #fff;
      }
    </style>
  </defs>
  <g id="Layer_2-2" data-name="Layer 2">
    <path class="cls-1" d="M44.51,379.38c-3.17,3.4-4.75,7.75-4.75,13.08s1.59,9.68,4.75,13.08c3.17,3.4,7.73,5.09,13.67,5.09h38.38c3.91,0,5.86,1.92,5.86,5.77s-1.95,5.77-5.86,5.77h-39.82c-9.68,0-17.11-2.77-22.29-8.32-5.18-5.55-7.77-12.68-7.77-21.4s2.59-15.85,7.77-21.4c5.18-5.55,12.61-8.32,22.29-8.32h39.82c3.91,0,5.86,1.92,5.86,5.77s-1.95,5.77-5.86,5.77h-38.38c-5.94,0-10.5,1.7-13.67,5.09ZM178.83,404.68h-54v10.95c0,2.09-.57,3.71-1.7,4.84-1.13,1.13-2.75,1.7-4.84,1.7s-3.71-.57-4.84-1.7-1.7-2.75-1.7-4.84v-23.18c0-8.72,2.6-15.85,7.81-21.4,5.21-5.55,12.62-8.32,22.25-8.32h20.04c9.62,0,17.04,2.77,22.25,8.32s7.81,12.68,7.81,21.4v23.18c0,2.09-.57,3.71-1.7,4.84s-2.75,1.7-4.84,1.7-3.71-.57-4.84-1.7-1.7-2.75-1.7-4.84v-10.95ZM124.82,393.73h54v-1.27c0-5.38-1.58-9.75-4.75-13.12-3.17-3.37-7.73-5.05-13.67-5.05h-17.15c-5.94,0-10.5,1.68-13.67,5.05-3.17,3.37-4.75,7.74-4.75,13.12v1.27ZM270.35,412.24c0-3.17-.91-5.72-2.72-7.64s-4.5-2.89-8.07-2.89h-42.71v13.92c0,2.09-.55,3.71-1.66,4.84-1.1,1.13-2.7,1.7-4.8,1.7s-3.71-.57-4.84-1.7c-1.13-1.13-1.7-2.75-1.7-4.84v-46.36c0-2.09.57-3.71,1.7-4.84s2.75-1.7,4.84-1.7h55.28c5.66,0,10.02,1.63,13.08,4.88,3.06,3.25,4.58,7.43,4.58,12.52,0,3.62-.76,6.82-2.29,9.59-1.53,2.77-3.76,4.84-6.71,6.2,2.89,1.25,5.11,3.16,6.67,5.73,1.56,2.58,2.33,5.53,2.33,8.87v5.09c0,2.09-.57,3.71-1.7,4.84-1.13,1.13-2.75,1.7-4.84,1.7s-3.69-.57-4.8-1.7c-1.1-1.13-1.66-2.75-1.66-4.84v-3.4ZM216.86,374.28v15.96h45.26c2.6,0,4.61-.74,6.03-2.21s2.12-3.4,2.12-5.77-.71-4.3-2.12-5.77c-1.42-1.47-3.42-2.21-6.03-2.21h-45.26ZM317.27,384.53c1.55,0,2.89-.55,4.02-1.66s1.7-2.45,1.7-4.02c0-1.49-.57-2.81-1.7-3.96s-2.47-1.72-4.02-1.72-2.9.57-4.06,1.72-1.74,2.47-1.74,3.96c0,1.58.57,2.94,1.7,4.1,1.19,1.05,2.56,1.58,4.1,1.58ZM312.59,390.17c0,1.02.05,2.51.15,4.46s.15,3.19.15,3.71l.25,5.14c0,2.4-.47,3.75-1.41,4.04-.93.29-2.2.54-3.81.76-1.69-.21-2.53-1.17-2.53-2.85v-42.69h-12.48v45.22c0,4.56,1.47,8.07,4.42,10.53,2.76,2.3,6.26,3.51,10.51,3.66v.03h2.28c4.26,0,7.83-1.27,10.72-3.81,2.89-2.54,4.33-6.01,4.33-10.41v-17.78h-12.56ZM287.58,293.42c-21.68,31.75-58.17,52.59-99.52,52.59-46.47,0-86.78-26.31-106.86-64.84L2.98,163.22c-5.45-8.22-3.2-19.3,5.01-24.75,11.43-7.58,26.4-1.43,33.98,10l21.11,27.8,4.53-127.97c0-12.13,8.69-24.52,19.62-24.52s20.09,8.9,20.22,19.98l.91,75.22L173.47,15.86c6.88-10.89,22.62-21.3,35.59-12.66,10.9,6.88,13.04,21.88,4.91,35.95l-42.35,67.08c5.37-.74,10.86-1.12,16.44-1.12,38.43,0,72.66,18,94.72,46.04h-65.7c-9.88-4.37-20.8-6.79-32.29-6.79-44.48,0-80.54,36.36-80.54,81.2,0,1.72.05,3.43.16,5.12.94,15.21,6.03,29.29,14.16,41.1,14.53,21.14,38.77,34.98,66.22,34.98,16.35,0,31.55-4.91,44.25-13.34h58.54ZM308.51,225.56c0,19.85-4.8,38.58-13.31,55.08-16.62.06-34.07.13-51.4.19-13.67.06-27.27.11-40.32.16,0,1.84-.25,7.44-4.35,11.03-.65.56-1.33,1.02-2.01,1.4h-21.91c-.68-.1-1.27-.3-1.79-.56-6.35-3.14-4.74-17.02-4.6-18.09l-2.55-4.91c-1.84-3.55-2.8-7.48-2.8-11.48v-29.97c0-2.71.42-5.4,1.3-7.95,1.08-3.11,2.77-6.84,5.48-10.65,3.95-5.53,8.41-8.94,11.32-10.83-7.52-4.04-12.68-9.48-11.74-13.3,1.45-5.87,17.58-8.9,22.3-3.03.84,1.03,1.3,2.32,1.45,3.81,5.88-5.64,11.77-11.28,17.66-16.92,3.16-3.04,7.38-4.73,11.76-4.73h69.08c2.61,4.44,4.94,9.06,6.95,13.85-1.27-.99-3.72-2.61-5.38-3.29-.95-.38-1.84-.63-2.61-.78h-66.48c-2.2,0-4.31.88-5.86,2.44-7.93,7.97-15.86,15.94-23.79,23.91h111.07c1.66,7.94,2.53,16.18,2.53,24.62ZM206.86,234.79c0-6.72-22.58-22.55-30.94-16.7-2.2,1.54-4.47,5.39-4.65,9.56-.13,2.77.67,5.25,1.46,6.55,4.5,7.43,34.13,5.22,34.13.59ZM211.24,268.77c-4.24-5.04-8.47-10.07-12.71-15.1h-19.76c-1.05.94-2.68,2.76-2.84,5.18-.27,4.1,3.76,8.63,10.17,9.92h25.14ZM296.97,257.71h-76.99c0,6.11,4.95,11.06,11.06,11.06h54.88c3.05,0,5.81-1.24,7.81-3.24s3.24-4.77,3.24-7.82ZM300.59,231.33h-84.42v3.46c0,8.41,6.82,15.23,15.23,15.23h53.96c8.41,0,15.23-6.82,15.23-15.23v-3.46Z"/>
  </g>
</svg>